<svg width="17" height="17" viewBox="0 0 17 17" fill="none" xmlns="http://www.w3.org/2000/svg">
<path d="M7.39482 1.17195C7.76746 0.275999 9.03668 0.275998 9.40933 1.17195L10.7912 4.49441C10.9483 4.87212 11.3035 5.13019 11.7113 5.16289L15.2982 5.45044C16.2654 5.52799 16.6576 6.73509 15.9207 7.36636L13.1879 9.70731C12.8772 9.97344 12.7415 10.391 12.8364 10.7889L13.6714 14.2891C13.8965 15.233 12.8697 15.979 12.0416 15.4732L8.97072 13.5975C8.62161 13.3843 8.18254 13.3843 7.83343 13.5975L4.76258 15.4732C3.93447 15.979 2.90765 15.233 3.1328 14.2891L3.96772 10.7889C4.06263 10.391 3.92695 9.97344 3.61628 9.70731L0.883462 7.36636C0.146513 6.73509 0.538722 5.52799 1.50598 5.45044L5.09285 5.16289C5.50062 5.13019 5.85583 4.87212 6.01293 4.49441L7.39482 1.17195Z" stroke="#181B21"/>
</svg>
